<?xml version="1.0" standalone="no"?>
<!DOCTYPE svg PUBLIC "-//W3C//DTD SVG 20010904//EN"
 "http://www.w3.org/TR/2001/REC-SVG-20010904/DTD/svg10.dtd">
<svg version="1.0" xmlns="http://www.w3.org/2000/svg"
 width="700.000000pt" height="700.000000pt" viewBox="0 0 700.000000 700.000000"
 preserveAspectRatio="xMidYMid meet">
<metadata>
Created by potrace 1.11, written by Peter Selinger 2001-2013
</metadata>
<g transform="translate(0.000000,700.000000) scale(0.100000,-0.100000)"
fill="#000000" stroke="none">
<path d="M3220 6680 c-754 -71 -1441 -392 -1970 -920 -508 -507 -815 -1130
-917 -1860 -24 -176 -24 -624 0 -800 102 -726 410 -1353 912 -1855 599 -599
1409 -935 2255 -935 1317 0 2495 808 2976 2041 233 599 277 1277 123 1909
-249 1019 -997 1861 -1981 2229 -227 85 -449 140 -710 176 -134 19 -551 28
-688 15z m2000 -1173 c0 -46 -340 -1680 -351 -1687 -4 -3 -181 -70 -393 -150
-212 -80 -386 -147 -386 -150 0 -3 133 -20 296 -37 163 -18 299 -34 301 -37 9
-8 -141 -265 -252 -431 -419 -628 -1005 -1153 -1650 -1478 l-90 -46 -3 157
c-16 785 295 1617 875 2339 264 329 643 696 992 963 169 130 195 155 76 74
-441 -299 -903 -716 -1235 -1114 -580 -695 -916 -1486 -947 -2229 l-6 -155
-66 70 c-216 227 -408 532 -499 795 -58 165 -110 463 -100 571 l3 37 135 -84
c74 -47 138 -85 143 -85 4 0 -22 42 -58 93 -35 50 -98 142 -140 203 l-76 110
24 65 c13 35 41 97 62 138 l37 75 62 -65 c34 -35 101 -107 149 -159 l87 -95
-21 55 c-11 30 -52 132 -90 226 -38 95 -69 179 -69 187 0 21 292 315 400 404
584 478 1424 923 2585 1369 181 69 205 78 205 71z"/>
</g>
</svg>
